<svg fill="#000000" xmlns="http://www.w3.org/2000/svg"  viewBox="0 0 24 24" width="24px" height="24px"><path d="M 12 2 C 6.52 2 2 5.9939394 2 11 C 2 16.006061 6.52 20 12 20 C 12.367449 20 12.660131 19.937924 13 19.902344 L 13 23.142578 L 14.544922 22.138672 C 16.657893 20.765241 21.430378 17.194425 21.994141 12.007812 L 22 11.955078 L 22 11 C 22 5.9939394 17.48 2 12 2 z M 12 4 C 16.52 4 20 7.2060606 20 11 L 20 11.808594 C 19.643408 15.002916 17.056643 17.49748 15 19.130859 L 15 17.619141 L 13.835938 17.814453 C 13.253709 17.911491 12.604762 18 12 18 C 7.48 18 4 14.793939 4 11 C 4 7.2060606 7.48 4 12 4 z"/></svg>